<?xml version="1.0" standalone="no"?>
<!DOCTYPE svg PUBLIC "-//W3C//DTD SVG 20010904//EN"
 "http://www.w3.org/TR/2001/REC-SVG-20010904/DTD/svg10.dtd">
<svg version="1.0" xmlns="http://www.w3.org/2000/svg"
 width="700.000000pt" height="700.000000pt" viewBox="0 0 700.000000 700.000000"
 preserveAspectRatio="xMidYMid meet">
<metadata>
Created by potrace 1.14, written by Peter Selinger 2001-2017
</metadata>
<g transform="translate(0.000000,700.000000) scale(0.100000,-0.100000)"
fill="#000000" stroke="none">
<path d="M0 3500 l0 -3500 3500 0 3500 0 0 3500 0 3500 -3500 0 -3500 0 0
-3500z m1529 1348 c29 -92 751 -2662 751 -2674 0 -12 -41 -14 -267 -12 l-267
3 -92 332 c-50 182 -94 339 -97 347 -6 14 -53 16 -405 16 l-400 0 -26 -97
c-15 -54 -57 -210 -94 -348 l-67 -250 -258 -3 c-243 -2 -258 -1 -253 15 5 16
693 2468 741 2641 l18 62 353 0 352 0 11 -32z m2401 3 c274 -71 454 -252 532
-536 19 -70 21 -105 21 -275 0 -169 -2 -206 -21 -275 -78 -287 -271 -476 -552
-540 -60 -14 -143 -18 -417 -22 l-343 -5 0 -519 0 -519 -252 2 -253 3 -3 1345
c-1 740 0 1351 3 1358 4 11 115 13 602 9 578 -3 601 -4 683 -26z m2770 -161
l0 -190 -305 0 -305 0 0 -980 0 -980 305 0 305 0 -2 -187 -3 -188 -862 -3
-863 -2 0 190 0 190 305 0 305 0 0 980 0 980 -305 0 -305 0 0 190 0 190 865 0
865 0 0 -190z"/>
<path d="M1126 4328 c-8 -29 -74 -273 -147 -543 -72 -269 -134 -496 -136 -502
-4 -10 62 -13 312 -13 250 0 316 3 312 13 -2 6 -64 233 -136 502 -169 627
-160 595 -176 595 -8 0 -20 -22 -29 -52z"/>
<path d="M3155 4457 c-3 -6 -4 -199 -3 -427 l3 -415 195 -3 c327 -5 452 18
524 98 62 69 71 110 71 330 0 220 -9 261 -71 330 -71 79 -180 100 -512 100
-153 0 -204 -3 -207 -13z"/>
</g>
</svg>
