<?xml version="1.0" standalone="no"?>
<!DOCTYPE svg PUBLIC "-//W3C//DTD SVG 20010904//EN"
 "http://www.w3.org/TR/2001/REC-SVG-20010904/DTD/svg10.dtd">
<svg version="1.0" xmlns="http://www.w3.org/2000/svg"
 width="700.000000pt" height="700.000000pt" viewBox="0 0 700.000000 700.000000"
 preserveAspectRatio="xMidYMid meet">
<metadata>
Created by potrace 1.14, written by Peter Selinger 2001-2017
</metadata>
<g transform="translate(0.000000,700.000000) scale(0.100000,-0.100000)"
fill="#000000" stroke="none">
<path d="M771 4726 c-23 -83 -46 -162 -51 -176 -4 -14 -20 -68 -34 -120 -14
-52 -60 -216 -102 -365 -42 -148 -77 -277 -79 -285 -2 -8 -15 -53 -28 -100
-14 -47 -42 -146 -62 -220 -20 -74 -40 -146 -45 -160 -5 -14 -30 -101 -56
-195 -25 -93 -57 -207 -71 -252 -13 -45 -26 -90 -28 -100 -4 -20 -46 -172 -76
-273 -24 -84 -79 -280 -84 -301 -3 -13 26 -15 253 -15 l257 1 32 120 c18 66
35 129 37 140 3 11 17 63 31 115 14 52 40 145 56 205 l30 111 399 -1 c219 0
401 -2 404 -5 5 -5 164 -575 172 -617 2 -12 8 -32 13 -45 l8 -23 271 -1 270 0
-14 45 c-7 25 -38 136 -69 246 -60 214 -132 467 -270 955 -48 168 -92 328
-100 355 -7 28 -25 91 -40 140 -15 50 -29 100 -31 113 -3 13 -11 42 -18 65 -7
23 -18 60 -24 82 -7 22 -21 71 -32 109 -11 37 -22 78 -24 90 -3 11 -26 93 -51
181 -26 88 -53 185 -61 215 -8 30 -19 69 -25 87 l-10 32 -353 -1 -353 0 -42
-152z m402 -371 c8 -19 101 -354 152 -550 13 -49 42 -157 65 -240 23 -82 43
-157 45 -165 6 -28 26 -101 32 -116 4 -12 -40 -14 -312 -14 l-316 0 7 22 c6
20 111 405 119 438 2 8 11 40 19 70 8 30 30 114 50 185 33 126 75 280 96 357
11 40 30 46 43 13z"/>
<path d="M2647 4872 c-3 -6 -1 -2671 2 -2698 1 -7 81 -10 249 -8 136 0 249 2
252 3 3 0 5 233 4 516 l0 515 80 0 c220 0 604 9 631 14 63 14 112 28 165 47
228 83 395 296 446 569 11 61 14 343 4 388 -6 23 -13 58 -16 77 -16 100 -86
245 -162 334 -49 57 -140 129 -206 163 -42 22 -169 61 -232 73 -52 10 -1212
16 -1217 7z m1053 -416 c140 -26 223 -108 247 -244 10 -57 10 -281 0 -337 -26
-153 -111 -232 -272 -253 -33 -4 -163 -8 -290 -7 l-230 0 -1 420 c0 231 0 422
2 425 4 9 494 5 544 -4z"/>
<path d="M4972 4687 l3 -191 303 1 302 0 -2 -976 -3 -976 -290 -1 c-159 -1
-296 -2 -302 -3 -10 -1 -13 -46 -13 -189 l0 -188 860 0 c473 0 861 3 862 6 0
3 2 88 3 190 l3 185 -304 0 c-195 0 -305 4 -307 10 -2 9 0 1920 2 1936 1 3
121 6 269 6 147 1 283 1 303 2 l36 1 -1 188 -1 187 -863 2 -862 1 2 -191z"/>
</g>
</svg>
